<?xml version="1.0" encoding="utf-8"?>
<!-- Generator: Adobe Illustrator 21.0.2, SVG Export Plug-In . SVG Version: 6.00 Build 0)  -->
<svg version="1.1" id="レイヤー_1" xmlns="http://www.w3.org/2000/svg" xmlns:xlink="http://www.w3.org/1999/xlink" x="0px"
	 y="0px" viewBox="0 0 100 50" style="enable-background:new 0 0 100 50;" xml:space="preserve">
<style type="text/css">
	.st0{fill:#595757;}
	.st1{font-family:'UDDigiKyokashoNP-B';}
	.st2{font-size:2.7613px;}
	.st3{fill:#898989;}
	.st4{fill:none;stroke:#231815;stroke-miterlimit:10;}
	.st5{fill:none;}
	.st6{fill:none;stroke:#231815;stroke-width:0.5;stroke-miterlimit:10;}
	.st7{fill:none;stroke:#231815;stroke-width:0.75;stroke-miterlimit:10;}
	.st8{fill:#99CCCC;}
</style>
<text transform="matrix(2.0813 0 0 1 3.9165 48.2979)" class="st0 st1 st2">Tourlist Guide Web Magagine</text>
<g>
	<line class="st3" x1="3.7" y1="44.4" x2="92.3" y2="44.4"/>
	<g>
		<path class="st3" d="M3.7,45c25.8,0,51.7,0,77.5,0c3.7,0,7.4,0,11.2,0c0.8,0,0.8-1.3,0-1.3c-25.8,0-51.7,0-77.5,0
			c-3.7,0-7.4,0-11.2,0C2.9,43.8,2.9,45,3.7,45L3.7,45z"/>
	</g>
</g>
<path class="st4" d="M7,7"/>
<path class="st4" d="M20.6,2.8"/>
<path class="st5" d="M40.9,10.6"/>
<path class="st6" d="M5.2,3v38.9h4v-7.6h3.6V42h4.2V3h-4.2v27H9.2v-2.8V3C9.2,3,5.1,3,5.2,3z"/>
<path class="st6" d="M28,14h4.1V7c0,0-5.3-8.9-12.1,0c0,9,0,23.1,0,23.1h8v8c0,0-1.7,2.3-4,0c0-2.7,0-4,0-4h-4v4c0,0,6.1,8.9,12,0
	c0-10.4,0-10,0-10h-8V7c0,0,2.1-3.4,4,0C28,7,28,14,28,14z"/>
<polyline class="st6" points="35.2,3 35.2,7 38.5,7 38.5,42 42.5,42 42.5,7 46,7 46,3 34.9,3 "/>
<path class="st6" d="M42.2,1.6"/>
<path class="st7" d="M48.9,3v39H53v-7.8h3.3V42H61c0,0,0.6-12.2-3.5-12.4C61.2,25.8,64.2,7.3,48.9,3z"/>
<path class="st7" d="M52.7,10v18.9C52.7,28.9,62.1,21.2,52.7,10z"/>
<polyline class="st6" points="68,3 68,42.1 72,42.1 72,3 67.8,3 "/>
<path class="st7" d="M79,3v39h4v-8C83,34,103.7,15.2,79,3z"/>
<path class="st7" d="M82.9,9.6v18.9C82.9,28.5,92.3,20.8,82.9,9.6z"/>
<rect x="5.9" y="3.9" class="st8" width="2.4" height="37.3"/>
<rect x="7.8" y="30.8" class="st8" width="6.8" height="2.8"/>
<polyline class="st8" points="13.6,3.9 16.3,3.9 16.3,41.2 13.6,41.2 13.6,4.3 "/>
<rect x="28.6" y="7" class="st8" width="2.8" height="6.2"/>
<rect x="20.9" y="7" class="st8" width="2.4" height="22.3"/>
<rect x="23.3" y="28.5" class="st8" width="8.1" height="0.8"/>
<rect x="20.9" y="34.8" class="st8" width="2.4" height="3.3"/>
<polygon class="st8" points="36.2,3.9 36.2,6.1 39.2,6.1 39.2,41.2 41.8,41.2 41.8,6.3 45.4,6.3 45.4,3.9 "/>
<path class="st8" d="M51.8,33.7h7.5c0-1.2-1.3-2.8-1.3-2.8h-6.3V33.7z"/>
<path class="st8" d="M57.4,41.2h2.8c0,0,0-6-1-7.5s-1.8,0-1.8,0V41.2z"/>
<polyline class="st8" points="68.7,3.9 71.3,3.9 71.3,41.2 68.7,41.2 68.7,4.3 "/>
<path class="st8" d="M79.9,4.3v36.8h2v-8.9V7.8C81.9,7.8,82.9,5.7,79.9,4.3z"/>
<path class="st8" d="M49.7,4.3v36.8h2.1V6.3c0,0,0.1-0.3-0.1-0.7C51.5,5.1,51,4.5,49.7,4.3z"/>
<path class="st8" d="M55.5,30.8c0,0,4.8-6.3,4.2-11.4c-0.6-5.1-2.4-12.4-8-13.9c0.1,2.9,0.1,2.9,0.1,2.9S62.1,14.7,55.5,30.8z"/>
<path class="st8" d="M58.3,21.1c0.8,2.3-5.7,9.8-5.7,9.8h2.8l2.9-5"/>
<path class="st8" d="M49.7,4.3c0,0,3.3,0.8,3.6,1.9C53.6,7.3,49.7,4.3,49.7,4.3z"/>
<rect x="51.5" y="30.3" class="st8" width="2.4" height="1.3"/>
<path class="st8" d="M58,30.8c0,0,2.1,1.8,1.9,5.1s-1.5,0-1.5,0L58,30.8z"/>
<rect x="28.6" y="29.3" class="st8" width="2.8" height="8.5"/>
<path class="st8" d="M23.3,38.1c0,0,1.5,1.5,2.7,1.5s2.1-0.4,2.6-1.8c0.5-1.3,2.8,0,2.8,0s-2.1,3.8-5.4,3.8
	c-3.3-0.9-5.1-3.1-5.1-3.5C20.9,37.7,23.3,38.1,23.3,38.1z"/>
<path class="st8" d="M31.4,7c0,0-2.9-3.7-5.4-3.5S21.3,6.2,20.9,7c-0.4,0.8,2.4,0,2.4,0s0.4-2.2,2.7-2.2S28.6,7,28.6,7H31.4z"/>
<path class="st8" d="M81.6,5.5c0,0,9,4.2,8.8,13.9h-2.5c0,0,1-5.5-5.9-11.6"/>
<path class="st8" d="M90.3,19.5c0,0-1.2,7.9-8.8,14.7c0-3.9,0-3.9,0-3.9s7-3.5,6.3-11.2C87.2,11.4,90.3,19.5,90.3,19.5z"/>
<path class="st8" d="M7.8-6.2"/>
</svg>
